<svg width="1359" height="304" viewBox="0 0 1359 304" fill="none" xmlns="http://www.w3.org/2000/svg">
<path d="M239.994 0.704943C222.95 -1.15948 202.27 18.3933 202.555 36.6087C202.839 54.824 222.653 69.1656 241.024 66.5504C266.3 61.9325 274.768 50.9877 275.316 33.0244C275.031 14.8091 258.9 1.63265 239.994 0.704943Z" fill="#FEBC24"/>
<path d="M20.2982 85.5608C11.1922 84.5647 0.143871 95.0108 0.296027 104.742C0.448183 114.474 11.0337 122.136 20.8482 120.739C34.3522 118.272 38.8759 112.424 39.1687 102.827C39.0166 93.0959 30.3988 86.0564 20.2982 85.5608Z" fill="#FEBC24"/>
<path d="M1090.3 239.373C1081.19 238.377 1070.14 248.823 1070.3 258.555C1070.45 268.286 1081.03 275.948 1090.85 274.551C1104.35 272.084 1108.88 266.237 1109.17 256.64C1109.02 246.908 1100.4 239.869 1090.3 239.373Z" fill="#FEBC24"/>
<path d="M221.139 194.338C208.578 192.964 193.338 207.373 193.548 220.797C193.758 234.22 208.359 244.789 221.897 242.862C240.525 239.459 246.765 231.393 247.168 218.155C246.959 204.732 235.071 195.022 221.139 194.338Z" fill="#FEBC24"/>
<path d="M474.677 85.0009C463.158 83.741 449.183 96.9549 449.375 109.265C449.567 121.575 462.958 131.267 475.373 129.5C492.455 126.379 498.177 118.982 498.548 106.843C498.355 94.5326 487.454 85.6279 474.677 85.0009Z" fill="#FEBC24"/>
<path d="M1198.68 21.4775C1187.16 20.2175 1173.18 33.4315 1173.37 45.7416C1173.57 58.0516 1186.96 67.7438 1199.37 65.9765C1216.45 62.8557 1222.18 55.459 1222.55 43.3193C1222.35 31.0092 1211.45 22.1045 1198.68 21.4775Z" fill="#FEBC24"/>
<path d="M1309.87 212.117C1286.56 209.567 1258.27 236.312 1258.66 261.228C1259.05 286.144 1286.15 305.762 1311.28 302.184C1345.86 295.868 1357.44 280.897 1358.19 256.325C1357.8 231.409 1335.73 213.386 1309.87 212.117Z" fill="#FEBC24"/>
<path d="M704.904 187.462C693.385 186.202 679.409 199.416 679.602 211.726C679.794 224.036 693.184 233.728 705.6 231.961C722.682 228.84 728.404 221.443 728.774 209.304C728.582 196.994 717.681 188.089 704.904 187.462Z" fill="#FEBC24"/>
<path d="M927.523 81.7134C899.026 78.5964 864.452 111.286 864.928 141.74C865.404 172.194 898.53 196.171 929.244 191.799C971.503 184.079 985.66 165.78 986.576 135.748C986.1 105.294 959.131 83.2645 927.523 81.7134Z" fill="#FEBC24"/>
</svg>
