<svg width="277" height="184" viewBox="0 0 277 184" fill="none" xmlns="http://www.w3.org/2000/svg">
<path d="M239.382 28.3611C221.492 26.4042 199.786 46.9266 200.085 66.0451C200.384 85.1637 221.181 100.216 240.462 97.4715C266.992 92.6247 275.879 81.1371 276.455 62.2831C276.156 43.1646 259.225 29.3348 239.382 28.3611Z" fill="#FEBC24"/>
<path d="M181.317 141.474C174.329 140.71 165.852 148.725 165.969 156.193C166.085 163.66 174.208 169.539 181.739 168.467C192.1 166.574 195.572 162.087 195.796 154.723C195.68 147.256 189.067 141.855 181.317 141.474Z" fill="#FEBC24"/>
<path d="M87.9943 0.370261C79.1556 -0.596556 68.4317 9.54277 68.5794 18.9885C68.7271 28.4343 79.0018 35.8713 88.5281 34.5152C101.636 32.1205 106.026 26.4449 106.311 17.1299C106.163 7.68411 97.7982 0.851331 87.9943 0.370261Z" fill="#FEBC24"/>
<path d="M48.7419 97.5864C26.876 95.1946 0.346257 120.278 0.711622 143.646C1.07699 167.014 26.4955 185.412 50.0626 182.057C82.489 176.133 93.3516 162.092 94.0547 139.048C93.6894 115.68 72.9958 98.7765 48.7419 97.5864Z" fill="#FEBC24"/>
</svg>
