<svg width="246" height="66" viewBox="0 0 246 66" fill="none" xmlns="http://www.w3.org/2000/svg">
<path d="M94.3528 25.0918L101.801 48.7442" stroke="white" stroke-width="2" stroke-linecap="round" stroke-linejoin="round"/>
<path d="M87.1812 27.2944C89.7905 35.2191 92.0623 43.2505 94.6413 51.1862" stroke="white" stroke-width="2" stroke-linecap="round" stroke-linejoin="round"/>
<path d="M79.5054 28.6011L87.762 53.9916" stroke="white" stroke-width="2" stroke-linecap="round" stroke-linejoin="round"/>
<path d="M72.7527 31.5869L80.2393 55.4161" stroke="white" stroke-width="2" stroke-linecap="round" stroke-linejoin="round"/>
<path d="M48.6561 31.7683C48.182 32.9172 41.2908 54.2092 41.2908 55.4465" stroke="white" stroke-width="2" stroke-linecap="round" stroke-linejoin="round"/>
<path d="M41.4086 29.7261L34.0319 53.4006" stroke="white" stroke-width="2" stroke-linecap="round" stroke-linejoin="round"/>
<path d="M34.1564 27.6907L26.7267 51.5346" stroke="white" stroke-width="2" stroke-linecap="round" stroke-linejoin="round"/>
<mask id="path-8-inside-1_110_11" fill="white">
<path d="M27.773 26.0935L20.8514 48.3282C20.7528 48.6633 20.6504 49.0168 20.5518 49.3519C19.9905 50.4898 18.8375 50.2909 18.6403 49.0131C18.6403 49.0131 18.7807 48.5602 19.0196 47.7905L25.9411 25.5558C26.3318 24.3995 28.1067 24.904 27.7692 26.0935H27.773Z"/>
</mask>
<path d="M27.773 26.0935L20.8514 48.3282C20.7528 48.6633 20.6504 49.0168 20.5518 49.3519C19.9905 50.4898 18.8375 50.2909 18.6403 49.0131C18.6403 49.0131 18.7807 48.5602 19.0196 47.7905L25.9411 25.5558C26.3318 24.3995 28.1067 24.904 27.7692 26.0935H27.773Z" fill="black"/>
<path d="M27.773 26.0935L29.6826 26.6879L30.4902 24.0935H27.773V26.0935ZM20.8514 48.3282L18.9418 47.7337L18.9372 47.7486L18.9328 47.7636L20.8514 48.3282ZM20.5518 49.3519L22.3455 50.2367L22.4218 50.082L22.4705 49.9165L20.5518 49.3519ZM18.6403 49.0131L16.7299 48.4212L16.5933 48.8621L16.6637 49.3182L18.6403 49.0131ZM19.0196 47.7905L17.11 47.1961L17.1095 47.1975L19.0196 47.7905ZM25.9411 25.5558L24.0463 24.9157L24.0387 24.9384L24.0315 24.9614L25.9411 25.5558ZM27.7692 26.0935L25.8452 25.5474L25.1226 28.0935H27.7692V26.0935ZM25.8634 25.499L18.9418 47.7337L22.761 48.9226L29.6826 26.6879L25.8634 25.499ZM18.9328 47.7636C18.8827 47.9336 18.8319 48.1079 18.7817 48.2796C18.7314 48.4522 18.6817 48.6222 18.6332 48.7873L22.4705 49.9165C22.5205 49.7465 22.5714 49.5722 22.6215 49.4004C22.6719 49.2279 22.7215 49.0579 22.7701 48.8928L18.9328 47.7636ZM18.7582 48.4671C18.7153 48.554 19.0106 47.9791 19.8051 48.1185C20.5661 48.252 20.6382 48.8457 20.6169 48.708L16.6637 49.3182C16.8397 50.4583 17.5868 51.7904 19.1139 52.0583C20.6746 52.3321 21.827 51.2877 22.3455 50.2367L18.7582 48.4671ZM18.6403 49.0131C20.5507 49.605 20.5507 49.605 20.5507 49.605C20.5507 49.605 20.5507 49.605 20.5507 49.6049C20.5508 49.6049 20.5508 49.6049 20.5508 49.6049C20.5508 49.6048 20.5508 49.6048 20.5508 49.6046C20.5509 49.6044 20.551 49.6041 20.5511 49.6037C20.5514 49.6028 20.5518 49.6015 20.5524 49.5998C20.5534 49.5963 20.5551 49.591 20.5572 49.5841C20.5615 49.5703 20.5679 49.5496 20.5763 49.5224C20.5932 49.468 20.6182 49.3874 20.6506 49.2828C20.7155 49.0735 20.8103 48.7681 20.9297 48.3835L17.1095 47.1975C16.99 47.5826 16.8951 47.8884 16.8301 48.098C16.7976 48.2029 16.7726 48.2836 16.7556 48.3382C16.7472 48.3655 16.7408 48.3862 16.7364 48.4001C16.7343 48.4071 16.7327 48.4124 16.7316 48.4159C16.731 48.4177 16.7306 48.419 16.7303 48.4199C16.7302 48.4203 16.7301 48.4207 16.73 48.4209C16.73 48.421 16.73 48.4211 16.7299 48.4211C16.7299 48.4212 16.7299 48.4212 16.7299 48.4212C16.7299 48.4212 16.7299 48.4212 16.7299 48.4212C16.7299 48.4212 16.7299 48.4212 18.6403 49.0131ZM20.9292 48.385L27.8507 26.1503L24.0315 24.9614L17.11 47.1961L20.9292 48.385ZM27.8359 26.1959C27.759 26.4237 27.5595 26.6744 27.2562 26.8102C26.9935 26.9278 26.7499 26.9175 26.5725 26.8662C26.3957 26.8151 26.1645 26.6875 25.9935 26.4188C25.7961 26.1086 25.7821 25.7695 25.8452 25.5474L29.6932 26.6395C29.925 25.8227 29.8157 24.9745 29.3682 24.2713C28.9472 23.6096 28.3111 23.2051 27.6839 23.0237C26.4278 22.6604 24.6537 23.1179 24.0463 24.9157L27.8359 26.1959ZM27.7692 28.0935H27.773V24.0935H27.7692V28.0935Z" fill="white" mask="url(#path-8-inside-1_110_11)"/>
<path d="M19.6954 20.9375C17.4577 20.7571 12.7625 17.6086 11.4275 20.028C10.9799 20.8418 6.39465 36.9305 6.53497 37.8437C6.78149 39.4493 11.8143 40.6534 13.392 40.9738" stroke="white" stroke-width="2" stroke-linecap="round" stroke-linejoin="round"/>
<path d="M21.561 17.823C21.1855 18.8835 20.848 19.9551 20.5104 21.0231C18.3942 27.7251 16.2134 34.4199 14.1919 41.1477C13.7747 42.5397 13.331 43.9243 12.929 45.3199C11.8481 49.0355 9.10601 53.101 13.2248 56.1427C14.4233 57.0265 40.3952 64.8591 41.8933 64.9769C44.4343 65.1758 46.0803 64.1005 47.2067 61.972C48.1852 60.1198 56.2977 32.5234 57.773 27.0807" stroke="white" stroke-width="2" stroke-linecap="round" stroke-linejoin="round"/>
<path d="M108.037 40.3921C109.705 39.8029 114.404 39.3132 114.825 37.4756C115.042 36.5256 110.286 19.3947 109.55 18.7319C108.408 17.7008 103.337 20.076 101.733 20.3301" stroke="white" stroke-width="2" stroke-linecap="round" stroke-linejoin="round"/>
<path d="M59.5435 13.3872L59.7332 13.343L65.4297 12.0247C67.3146 3.17574 75.245 -0.164255 82.9896 4.8218C87.5445 -0.602468 96.0172 0.189259 99.5709 6.29846C101.793 10.1172 100.011 13.192 100.041 16.2595C100.041 16.3258 100.056 16.3921 100.056 16.4584C100.106 18.388 100.512 19.1613 100.86 20.5901C101.994 25.2226 105.347 34.624 107.111 40.468C107.52 41.8232 107.937 43.1746 108.336 44.5335C108.355 44.5961 108.374 44.655 108.393 44.7176C109.591 48.8125 112.769 53.4745 107.444 56.2547C106.618 56.6856 101.209 58.1475 99.0362 58.8546C95.8997 59.8709 81.4763 64.4298 80.3044 64.6066C77.8619 64.9822 75.9846 64.4151 74.5699 62.3419C73.5194 60.8026 65.2514 31.9468 63.4158 27.0491" stroke="white" stroke-width="2" stroke-linecap="round" stroke-linejoin="round"/>
<path d="M98.8843 16.9902C97.3521 17.7967 96.5481 19.3102 93.3016 20.0688C89.6455 20.9231 89.6417 19.0929 85.083 20.3302C77.9946 22.2525 70.891 25.5078 63.6167 27.0065L63.4157 27.047" stroke="white" stroke-width="2" stroke-linecap="round" stroke-linejoin="round"/>
<path d="M59.6531 25.4053L57.9275 26.9409L57.7682 27.0808" stroke="white" stroke-width="2" stroke-linecap="round" stroke-linejoin="round"/>
<path d="M63.4214 27.0477L63.2432 26.9703L59.8336 25.4826L59.6554 25.4053" stroke="white" stroke-width="2" stroke-linecap="round" stroke-linejoin="round"/>
<path d="M59.5445 13.3892C56.499 18.1248 56.0932 20.7762 59.6544 25.405" stroke="white" stroke-width="2" stroke-linecap="round" stroke-linejoin="round"/>
<path d="M109.19 44.4977C114.071 43.0027 120.094 42.4945 119.18 35.9876C119.054 35.1038 114.829 19.8473 114.401 18.7279C111.549 11.2967 106.838 14.5299 100.956 16.187" stroke="white" stroke-width="2" stroke-linecap="round" stroke-linejoin="round"/>
<path d="M12.0414 45.085C8.22604 43.6894 2.05164 43.0707 1.98337 37.8453C1.9682 36.8289 6.92896 19.0979 7.37269 18.1736C10.111 12.4805 17.1084 15.3675 21.7012 17.0283C21.7733 17.0541 21.8416 17.0873 21.9136 17.113C22.2625 17.2382 22.5925 17.4187 22.9376 17.5439C23.4231 17.7206 23.8744 17.9968 24.3561 18.1809C26.1121 18.8511 28.3307 21.1785 33.2877 19.584C33.7504 19.4256 34.1562 19.4845 34.6265 19.5471C35.8212 19.7092 54.0865 25.9252 57.5378 27.0041C57.6136 27.0299 57.6933 27.052 57.7691 27.0778" stroke="white" stroke-width="2" stroke-linecap="round" stroke-linejoin="round"/>
<path d="M24.306 18.1754L23.9229 17.9287C23.7029 17.7298 23.4602 17.5531 23.2744 17.3211C14.7523 6.6751 29.6043 -5.22294 38.5814 4.75285C45.4043 0.86417 51.939 1.80688 55.3448 9.27123C56.3916 11.5654 54.4156 11.6354 59.5432 13.3919" stroke="white" stroke-width="2" stroke-linecap="round" stroke-linejoin="round"/>
<path d="M139.934 52V22.864H139.214L139.694 18.4H147.182L149.486 36.496L151.838 18.4H159.182V52H154.622V25.888L151.07 47.2H147.95L144.494 26.464V52H139.934ZM166.199 52C164.727 52 163.543 51.584 162.647 50.752C161.783 49.888 161.351 48.816 161.351 47.536V32.464C161.351 31.152 161.783 30.08 162.647 29.248C163.543 28.416 164.727 28 166.199 28H166.391C167.255 28 168.023 28.208 168.695 28.624V28H173.255V47.536H173.927L174.407 52H168.695V50.128L167.495 52H166.199ZM166.151 32.464C165.991 32.464 165.911 32.544 165.911 32.704V47.296C165.911 47.456 165.991 47.536 166.151 47.536H168.695V32.464H166.151ZM180.641 18.4L180.689 47.536H181.889L182.369 52H176.129L176.081 22.864H175.121L175.601 18.4H180.641ZM191.933 47.536V52H189.149C187.805 52 186.717 51.6 185.885 50.8C185.053 49.968 184.637 48.88 184.637 47.536V32.464H182.621L183.005 28H184.637V22.864H183.437L183.821 18.4H189.197V28H191.933L191.549 32.464H189.197V47.536H191.933ZM205.846 37.408V47.728C205.846 49.072 205.43 50.16 204.598 50.992C203.766 51.792 202.678 52.192 201.334 52.192H197.878C196.534 52.192 195.446 51.792 194.614 50.992C193.782 50.16 193.366 49.072 193.366 47.728V22.672C193.366 21.328 193.782 20.256 194.614 19.456C195.446 18.624 196.534 18.208 197.878 18.208H201.334C202.678 18.208 203.766 18.624 204.598 19.456C205.43 20.256 205.846 21.328 205.846 22.672V33.424L201.286 32.944V22.912C201.286 22.752 201.206 22.672 201.046 22.672H198.166C198.006 22.672 197.926 22.752 197.926 22.912V47.488C197.926 47.648 198.006 47.728 198.166 47.728H201.046C201.206 47.728 201.286 47.648 201.286 47.488V37.408H205.846ZM212.797 18.4L212.845 47.536H214.045L214.525 52H208.285L208.237 22.864H207.277L207.757 18.4H212.797ZM223.273 47.536V28H227.833V47.536H228.553L229.033 52H223.273V50.128L222.073 52H220.777C219.305 52 218.121 51.584 217.225 50.752C216.361 49.888 215.929 48.816 215.929 47.536V32.464H214.777L215.257 28H220.489V47.296C220.489 47.456 220.569 47.536 220.729 47.536H223.273ZM230.413 52V22.864H229.261L229.741 18.4H234.973V29.872L236.173 28H237.469C238.941 28 240.109 28.416 240.973 29.248C241.869 30.08 242.317 31.152 242.317 32.464V47.536C242.317 48.816 241.869 49.888 240.973 50.752C240.109 51.584 238.941 52 237.469 52H237.277C236.413 52 235.645 51.792 234.973 51.376V52H230.413ZM237.517 32.464H234.973V47.536H237.517C237.677 47.536 237.757 47.456 237.757 47.296V32.704C237.757 32.544 237.677 32.464 237.517 32.464Z" fill="white"/>
</svg>
