<svg width="355" height="324" viewBox="0 0 355 324" fill="none" xmlns="http://www.w3.org/2000/svg">
<path d="M182.546 3.39102C100.654 -5.56668 1.2962 88.3756 2.66455 175.892C4.0329 263.408 99.2292 332.313 187.492 319.748C308.934 297.561 349.616 244.976 352.25 158.671C350.881 71.1548 273.381 7.84821 182.546 3.39102Z" fill="#BE7E39"/>
<path d="M160.555 160.523C170.487 160.537 180.419 160.543 190.345 160.523C190.358 161.11 190.51 161.676 190.655 162.242C191.01 163.639 191.517 165.015 191.939 166.392L158.902 166.767C159.337 165.259 159.844 163.751 160.219 162.236C160.357 161.689 160.463 161.083 160.555 160.523Z" fill="#CDCBCE"/>
<path d="M251.783 140.61C253.001 140.597 254.219 140.617 255.438 140.61L256.874 140.406C256.749 150.095 258.896 157.024 251.789 160.06C250.571 158.084 252.072 156.273 252.118 155.713C252.52 151.346 251.98 145.129 251.783 140.61Z" fill="#CDCBCE"/>
<path d="M174.287 147.582C180.347 146.258 180.531 153.977 176.612 154.886C171.35 156.105 170.382 148.438 174.287 147.582Z" fill="black"/>
<path d="M256.571 55.97C256.993 57.149 257.019 58.3872 257.039 59.6189H251.796C252.567 58.374 251.77 56.0754 252.296 55.6341C252.461 55.4958 255.096 56.2598 256.578 55.9634L256.571 55.97Z" fill="#91BDC0"/>
<path d="M251.789 59.625H257.032C256.584 86.5434 257.216 113.495 256.874 140.407L255.438 140.611C254.219 140.617 253.001 140.598 251.782 140.611C199.796 141.144 147.777 140.209 95.7912 140.611L94.0919 140.565C94.0788 139.254 94.2764 137.917 94.2632 136.633C96.081 136.31 98.1952 137.904 99.4401 136.132L99.1107 64.4396C99.6903 62.253 99.9209 61.1991 101.93 59.9609L251.789 59.6316V59.625Z" fill="#F7D3A6"/>
<path d="M210.828 82.1936C209.788 85.085 202.997 104.192 202.003 104.897L158.855 105.522L157.492 105.74C154.877 96.8087 152.467 87.7854 149.681 78.907C149.648 78.8017 149.621 78.6897 149.588 78.5843C152.914 79.0849 151.571 76.9641 152.374 76.5491C154.917 75.2516 202.398 77.5503 209.465 76.5491C208.563 82.299 205.73 82.4768 210.828 82.1936Z" fill="#FAD856"/>
<path d="M210.828 82.19C205.731 82.4798 208.569 82.302 209.465 76.5455C202.404 77.5466 154.917 75.248 152.375 76.5455C151.571 76.9539 152.915 79.0813 149.589 78.5807C148.838 76.2031 148.278 73.4038 147.415 71.1579L148.89 70.9076L214.497 70.7891L214.892 71.474C213.489 75.0241 212.119 78.5939 210.828 82.1834V82.19Z" fill="#F8AD3D"/>
<path d="M190.779 114.062H198.94C198.92 114.682 199.098 115.202 199.256 115.788C199.947 118.423 201.515 120.194 200.013 123.02C197.609 127.545 191.978 127.196 189.66 122.691C188.408 120.254 189.857 118.113 190.437 115.775C190.569 115.235 190.661 114.609 190.786 114.062H190.779Z" fill="#FCFDFF"/>
<path d="M166.904 114.569C168.28 114.484 169.657 114.378 171.027 114.312L171.429 115.768C175.907 125.16 166.001 129.257 162.168 123.685C160.39 121.096 162.307 117.823 160.68 115.169C161.516 114.642 162.287 114.866 163.169 114.806C164.414 114.721 165.659 114.648 166.904 114.576V114.569Z" fill="#FCFDFF"/>
<path d="M163.169 114.802C164.414 114.717 165.659 114.644 166.904 114.572C168.28 114.486 169.657 114.381 171.027 114.315C177.62 113.999 184.186 114.025 190.773 114.058H203.326" stroke="#1C3F44" stroke-width="3" stroke-linecap="round" stroke-linejoin="round"/>
<path d="M199.256 115.794C199.947 118.429 201.515 120.201 200.013 123.026C197.609 127.551 191.978 127.202 189.66 122.697C188.408 120.26 189.857 118.119 190.437 115.781" stroke="#1C3F44" stroke-width="3" stroke-linecap="round" stroke-linejoin="round"/>
<path d="M148.897 70.9076L214.504 70.7891L214.899 71.474C213.496 75.0241 212.126 78.5939 210.835 82.1834C209.794 85.0748 203.004 104.182 202.009 104.887L158.862 105.512" stroke="#1C3F44" stroke-width="3" stroke-linecap="round" stroke-linejoin="round"/>
<path d="M135.955 67.5L146.177 68.2904C147.039 68.8239 147.033 70.1411 147.421 71.162C148.278 73.408 148.844 76.2072 149.595 78.5848C149.628 78.6902 149.654 78.8022 149.687 78.9076C152.473 87.786 154.884 96.8027 157.499 105.74C158.434 108.935 159.152 112.175 160.686 115.172C162.313 117.82 160.397 121.1 162.175 123.688C166.008 129.26 175.914 125.17 171.435 115.771" stroke="#1C3F44" stroke-width="3" stroke-linecap="round" stroke-linejoin="round"/>
<path d="M140.928 184.398L209.637 184.767" stroke="black" stroke-width="3" stroke-linecap="round" stroke-linejoin="round"/>
<path d="M190.654 162.25C191.01 163.646 191.517 165.023 191.939 166.399C193.625 171.958 195.39 177.484 197.083 183.043" stroke="black" stroke-width="3" stroke-linecap="round" stroke-linejoin="round"/>
<path d="M160.219 162.242C159.837 163.764 159.33 165.265 158.902 166.774C157.347 172.201 155.727 177.615 154.166 183.042" stroke="black" stroke-width="3" stroke-linecap="round" stroke-linejoin="round"/>
<path d="M155.865 160.525C148.258 160.512 103.247 161.467 100.105 160.394C92.5179 157.799 94.1908 150.224 94.092 140.562C94.0788 139.252 94.2764 137.915 94.2632 136.63C94.0195 110.305 94.5399 83.9658 94.2632 57.6336C95.1722 52.6411 98.0109 50.8892 102.76 50L248.469 50.0659C252.494 50.6191 255.155 52.0286 256.571 55.9738C256.992 57.1528 257.018 58.391 257.038 59.6227C256.59 86.5411 257.223 113.492 256.88 140.404C256.755 150.093 258.902 157.022 251.795 160.058C250.867 160.453 249.194 160.736 248.147 160.855C244.669 161.25 200.791 160.499 190.351 160.525C180.419 160.545 170.487 160.539 160.561 160.525C159 160.525 157.426 160.525 155.872 160.525H155.865Z" stroke="black" stroke-width="3" stroke-linecap="round" stroke-linejoin="round"/>
<path d="M95.791 140.611C147.784 140.21 199.796 141.145 251.782 140.611C253.001 140.598 254.219 140.618 255.437 140.611" stroke="black" stroke-width="3" stroke-linecap="round" stroke-linejoin="round"/>
</svg>
