<?xml version="1.0" encoding="UTF-8"?><svg id="Layer_1" xmlns="http://www.w3.org/2000/svg" width="368.74" height="335.44" viewBox="0 0 368.74 335.44"><defs><style>.cls-1{fill:none;stroke-linecap:round;stroke-linejoin:round;stroke-width:3px;}.cls-1,.cls-2{stroke:#000;}.cls-3{fill:#febc24;}.cls-4{fill:#fefefe;}.cls-2{fill:#be7e39;}.cls-5{fill:#faf29f;}</style></defs><path class="cls-2" d="M113.75,320.04h-.01s-.01-.01-.01-.01C26.96,278.79-22.79,185.66,11.36,99.91,30.17,58.36,54.81,28.96,90.61,13.39,126.43-2.2,173.51-3.99,237.29,9.87c45.52,11.79,84.49,44.11,107.81,84.24,23.32,40.12,30.95,87.99,13.88,130.85-17.07,42.86-59.33,77.13-106.9,95.43-47.57,18.3-100.32,20.58-138.33-.36Z"/><path class="cls-4" d="M249.73,106.01l-2.06.03c-19.59.18-39.2-.25-58.78,0-.86,0-1.7-.08-2.53.13-.34-1.3-.61-2.62-.85-3.94-1.59-6.62-4.21-12.3-.85-13.62,6.71-1.44,51.44-16.47,54.12-15.65,1.7.52,1.67,1.36,2.28,2.62.69,1.43,7.82,26.84,8.66,30.41v.02Z"/><path class="cls-4" d="M172.02,106.15l-2.16-.09c-19.44.2-38.91-.27-58.35,0-.87,0-1.75-.09-2.6.16.86-3.56,8.07-28.78,8.78-30.18.74-1.48.69-2.4,2.71-2.96,2.69-.75,46.9,14.21,53.7,15.56,3.68,2.38-.33,10.19-1.27,14.04-.28,1.14-.49,2.33-.79,3.47h-.02Z"/><path class="cls-5" d="M249.73,106.01c.65,2.78,1.18,5.69,1.74,8.49l-39.33.21c-3.26,19.18,6.64,36.1,6.76,38.05.11,1.62-2.65,8.88-8.03-5.08-3.77-9.77-5.29-22.5-5.92-32.99l-15.9-.21c-.81-2.81-1.96-5.48-2.71-8.32.83-.22,1.69-.12,2.54-.13,19.59-.25,39.19.18,58.78,0l2.07-.03h0Z"/><path class="cls-5" d="M172.03,106.15c-.73,2.84-1.54,5.56-2.34,8.37h-11.04c-1.93,1,1.42,18.1-7.19,16.07-5.43-1.28-.24-15.35-2.12-16.07l-42.07-.42c.53-2.59,1.01-5.3,1.63-7.87.86-.25,1.73-.15,2.6-.16,19.44-.27,38.91.2,58.35,0l2.16.09h0Z"/><path class="cls-3" d="M169.68,114.5c-1.65,5.75-3.16,11.71-5.16,17.34-12.15,34.03-18.89,24.11-27.23,69.77-14.21-.83-29.12-8.7-43.47-10.99,3.33-9.04,7.64-15.55,10.06-29.6,2.65-15.38-1.66-22.32,3.38-46.94l42.07.42c1.87.72-3.31,14.79,2.11,16.07,8.6,2.03,5.25-15.07,7.19-16.07h11.04Z"/><path class="cls-5" d="M133.28,128.88c4.97-.49,5.04,6.45,1.27,7.19-4.82.94-5.55-6.77-1.27-7.19Z"/><path class="cls-5" d="M122.28,119.99c5.82-.87,4.73,7.58,0,6.76-2.95-.5-3.46-6.25,0-6.76Z"/><path class="cls-3" d="M251.47,114.5c5.81,28.97-1.98,36.4,8.29,64.28,1.97,5.35,4.51,9.39,5.33,11.42-14.66,3.29-28.71,9.75-43.56,11.84-2.91-15.09-2.98-23.07-11.08-38.05-12.02-16.74-15.92-30.36-21.4-49.47l15.9.21c.63,10.49,2.16,23.22,5.92,32.99,5.38,13.95,8.14,6.7,8.03,5.08-.13-1.96-10.04-18.87-6.76-38.05l39.33-.21v-.02Z"/><path class="cls-5" d="M236.88,121.26c3.36-.89,6.39,2.14,4.44,5.29-3.9,6.28-9.79-3.86-4.44-5.29Z"/><path class="cls-5" d="M222.51,120c5.7-.56,3.85,8.13-.85,6.76-2.28-.66-3.05-6.38.85-6.76Z"/><path class="cls-5" d="M228.85,134.38c3.95-1.61,4.68,3.96,2.11,4.65-3.21.86-3.99-3.88-2.11-4.65Z"/><path class="cls-1" d="M208.22,54.06l-14.95,14.79"/><path class="cls-1" d="M247.66,106.04c-19.59.18-39.2-.25-58.78,0"/><path class="cls-1" d="M185.5,102.24c-1.59-6.62-4.21-12.3-.85-13.62,6.71-1.44,51.44-16.47,54.12-15.65,1.7.52,1.67,1.36,2.28,2.62.69,1.43,7.82,26.84,8.66,30.41.65,2.78,1.18,5.69,1.74,8.49,5.81,28.98-1.98,36.4,8.29,64.28,1.97,5.35,4.51,9.39,5.33,11.42.06.15.19.27.25.42,1.46,3.73,2.35,6.49-1.6,9.14-1.65,1.1-35.96,11.4-38.05,10.49-4.51-1.95-3.6-5.4-4.15-8.21-2.91-15.09-2.98-23.07-11.08-38.05-12.02-16.74-15.92-30.36-21.4-49.47-.81-2.81-1.96-5.48-2.71-8.32-.34-1.3-.61-2.62-.85-3.94h0Z"/><path class="cls-1" d="M179.33,40.08l.07,21.99"/><path class="cls-1" d="M148.91,52.54l17.14,17.14"/><path class="cls-1" d="M111.5,106.05c19.44-.27,38.91.2,58.35,0"/><path class="cls-1" d="M172.81,102.66c.95-3.84,4.95-11.66,1.27-14.04-6.8-1.35-51.01-16.3-53.7-15.56-2.02.55-1.96,1.48-2.71,2.96-.71,1.41-7.92,26.62-8.78,30.18-.62,2.57-1.1,5.28-1.63,7.87-5.04,24.62-.73,31.55-3.38,46.94-2.42,14.05-6.73,20.56-10.06,29.6-.69,1.88-3.84,5.76,1.6,9.31,1.64,1.07,35.31,11.15,37.63,10.32,4.5-1.61,3.62-5.29,4.23-8.63,8.34-45.67,15.09-35.74,27.23-69.77,2.01-5.62,3.52-11.59,5.16-17.34.81-2.81,1.61-5.52,2.34-8.37.29-1.14.51-2.33.79-3.47v-.02Z"/></svg>