<?xml version="1.0" encoding="UTF-8"?><svg id="Layer_1" xmlns="http://www.w3.org/2000/svg" width="363.13" height="345.59" viewBox="0 0 363.13 345.59"><defs><style>.cls-1{fill:#f8ad3d;}.cls-2{stroke:#384650;}.cls-2,.cls-3{fill:none;}.cls-2,.cls-3,.cls-4{stroke-linecap:round;stroke-linejoin:round;stroke-width:2px;}.cls-5{fill:#e4f0e5;}.cls-3{stroke:#000;}.cls-6{fill:#38454e;}.cls-7{fill:#8bcb4a;}.cls-8{fill:#a6411b;}.cls-9{fill:#f7d3a6;}.cls-4{fill:#fbfdfd;stroke:#37454f;}.cls-10{fill:#be7e39;}.cls-11{fill:#fad856;}</style></defs><path class="cls-10" d="M80.69,31.68C3.87,72.88-26.59,198.09,27,273.63c53.58,75.54,201.48,98.74,270.97,34.93,92.68-92.06,73.12-166.1,23.75-242.99C268.14-9.97,162.62-18.81,80.69,31.68Z"/><path class="cls-8" d="M135.12,186.12l-.68-.04c-.49-1.89-1.29-3.65-2.37-5.27-.09-.13-.18-.26-.27-.39-8.39-11.75-26.72-8.48-30.54,5.43l-.97.27c-4.62-1.14-13.9.24-16.76-.62l.22-17.47,136.93-.24c.11,4.78.76,11.51.54,15.68-.04.78.05,1.59-.42,2.3-28.54-.41-57.12.49-85.66.35h0Z"/><path class="cls-11" d="M132.06,180.82c-.09-.13-.18-.26-.27-.39-6.39.89-2.88.83-4.17,4.16-4.46,11.48-13.65,14.67-25.38,13.09-1.65-3.54-2.05-7.55-1.12-11.34l-.86-.2.97-.27c3.82-13.92,22.16-17.18,30.54-5.44.1.13.18.26.27.39h0Z"/><path class="cls-1" d="M132.06,180.82c1.09,1.62,1.88,3.39,2.37,5.27l.68.04-.57.44c.29,1.25.45,2.56.45,3.84,0,18.23-25.03,23.82-32.76,7.26,11.72,1.58,20.91-1.6,25.38-13.09,1.29-3.33-2.22-3.27,4.17-4.16.1.13.18.26.27.39h0Z"/><path class="cls-7" d="M122.47,108.05c-6.31.03-12.62-.07-18.93,0-1.13-3.77,1.42-6.9,1.58-8.16.58-4.71,0-15.52.49-21.34-.31-.02-.62-.04-.94-.05-1.77-11.74,7.61-1.66,6.62-9.62,10.76,1.34,5.02,4.58,4.67,11.63-.04.81,1.29,15.11,1.51,16.07.95,4.28,2.04,5.45,3.9,9.06.38.73,1.31,1.38,1.1,2.41h0Z"/><path class="cls-7" d="M196.55,108.04c-6.29-.18-12.62.04-18.93,0-1.1-3.97,2.64-6.61,3.36-10.36l.08-19.11c-.32-.02-.62-.04-.94-.05-1.68-12.27,6.7-2.38,5.71-9.73,11.41,1.01,5.74,5.75,5.73,15.9,0,9.65,1.06,12.61,4.2,21.02.3.79.75,1.46.77,2.34h0Z"/><path class="cls-7" d="M161.31,108.05c-6.62-.03-13.24-.02-19.86,0-1.35-3.71,2.59-7.37,2.92-9.04.6-3.03-.39-15.41.52-20.43-.47-.02-.94-.07-1.41-.08-1.78-11.59,7.44-1.84,6.62-9.62,2.91.34,4.94-.52,6.29,2.81,1.51,3.69-5.05,18.21,3.79,33.95.46.81,1.12,1.4,1.12,2.41h0Z"/><path class="cls-5" d="M150.11,68.87c.82,7.77-8.39-1.97-6.62,9.62-.59-.02-1.17-.08-1.76-.1l-2.13.12c-.17-4.04-6.21-11.62,10.5-9.63h0Z"/><path class="cls-9" d="M103.54,108.04c6.31-.07,12.62.03,18.93,0,6.33-.03,12.66.02,18.99,0,6.62-.02,13.24-.03,19.86,0,5.44.02,10.87-.04,16.31,0,6.3.04,12.63-.18,18.92,0,3.18.09,6.37-.06,9.55,0l.91.89v49.39l.16,2.05c-37.88-.51-76.04-.69-113.92-.08-.11-7.57-.04-15.1-.04-22.68,0-9.87-.03-19.7-.02-29.57,3.43-.12,6.9.04,10.34,0Z"/><path class="cls-6" d="M103.57,118.18c5.03-1.71,5.67,5.76,1.77,6.18-3.35.35-4.31-5.31-1.77-6.18Z"/><path class="cls-6" d="M187.83,118.19c2.33-.6,5.04,1.47,3.75,4.19-2.63,5.53-8.74-2.9-3.75-4.19Z"/><path class="cls-6" d="M103.57,145.98c4.47-1.53,5.95,4.86,2.21,5.73-4.36,1.01-4.47-4.95-2.21-5.73Z"/><path class="cls-6" d="M187.38,145.97c4.19-1.69,6.44,4.98,2.21,5.73-4,.72-4.15-4.95-2.21-5.73Z"/><path class="cls-11" d="M267.42,180.48c-.1-.13-.18-.26-.28-.39-6.45.58-2.74.63-4.11,4.47-4.12,11.55-13.58,14.31-24.99,13.43-1.79-3.61-2.26-7.74-1.31-11.66l-.61-.22.73-.24c3.74-13.75,21.75-17.19,30.29-5.78.1.13.19.25.28.39h0Z"/><path class="cls-1" d="M267.42,180.48c1.21,1.71,2.07,3.6,2.6,5.62.36,1.38.55,2.84.55,4.26,0,18-24.51,23.78-32.54,7.62,11.41.88,20.87-1.87,24.99-13.43,1.37-3.84-2.35-3.9,4.11-4.47.1.13.19.25.28.38h0Z"/><path class="cls-8" d="M270.02,186.12c-.53-2.02-1.39-3.91-2.6-5.62-.1-.13-.18-.26-.28-.39-8.54-11.41-26.55-7.97-30.29,5.78l-.73.25c-3.01-.07-6.02-.13-9.03-.2l.65-76.33c.7-1.58,31.32-.93,34.63-.67,3.25.26,6.26,2.49,9.39.89,1.65,2.09,21.24,35.42,21.88,37.49-.89,33.74,8.24,39.75-22.67,38.82h-.95v-.02Z"/><path class="cls-4" d="M235.68,113.17c1.14-.56,22.13-.77,25.14.71,2.46,2.91,15.62,24.95,14.56,26.82-.59,1.03-2.05,1.09-3.09,1.32-1.81.4-35.49.63-37.05-.35-1.88-1.18-2.45-27.07.44-28.49h0Z"/><path class="cls-2" d="M247.6,153.29h-12.35"/><path class="cls-3" d="M102.91,78.39c.59.04,1.17.06,1.76.1.32.02.62.04.94.05,2.77.16,5.55.31,8.32.46"/><path class="cls-3" d="M270.57,190.37c0-1.44-.19-2.88-.55-4.26-.53-2.02-1.39-3.91-2.6-5.62-.1-.13-.18-.26-.28-.39-8.54-11.41-26.55-7.97-30.29,5.78-.04.16-.08.31-.12.46-.94,3.92-.48,8.05,1.31,11.66,8.02,16.15,32.54,10.37,32.54-7.62h0Z"/><path class="cls-3" d="M134.99,190.4c0-1.29-.16-2.58-.45-3.84-.04-.16-.07-.32-.11-.47-.49-1.89-1.29-3.65-2.37-5.27-.09-.13-.18-.26-.27-.39-8.39-11.75-26.72-8.48-30.54,5.44-.04.16-.08.32-.12.47-.93,3.8-.53,7.8,1.12,11.33,7.73,16.55,32.75,10.98,32.75-7.27h0Z"/><path class="cls-3" d="M135.12,186.12c28.54.15,57.12-.76,85.66-.35,2.11.03,4.22.1,6.32.14,3.01.07,6.02.13,9.03.2"/><path class="cls-3" d="M218.04,160.56c-3.62-.05-7.25-.13-10.87-.18-37.88-.51-76.04-.69-113.92-.08-2.39.04-16.38-.42-17.01.94,1.52,9.19-3.23,21.15,7.26,24.27,2.86.86,12.14-.53,16.76.62"/><path class="cls-3" d="M207.02,158.34v-49.39l-.91-.89c-3.18-.06-6.37.09-9.55,0-6.29-.18-12.62.04-18.92,0-5.44-.04-10.87.02-16.31,0-6.62-.03-13.24-.02-19.86,0-6.33.02-12.66-.03-18.99,0-6.31.03-12.62-.07-18.93,0-3.44.04-6.91-.12-10.34,0-2.12.08-4.26-.05-6.38,0l-.91.89.25,48.95"/><path class="cls-3" d="M204.81,138.03c-37.19-.14-74.39-.29-111.59-.43-1.62,0-3.25,0-4.87-.02"/><path class="cls-3" d="M270.98,186.12c30.91.94,21.79-5.09,22.67-38.82-.65-2.07-20.23-35.4-21.88-37.49-3.6-4.57-6.86-6.96-12.7-7.94-1.63-.27-31.49-.42-33.09,0-4.43,1.16-4.92,3-5.56,7.05-.46,2.91.03,50.59.23,58.87.11,4.78.76,11.51.54,15.68"/><path class="cls-3" d="M171.1,105.68c4.32-5.68,5.25-17.63,5.03-24.76-.22-6.92-6.66-13.59,9.72-12.13,11.41,1.02,5.74,5.75,5.73,15.9,0,9.65,1.06,12.61,4.2,21.02"/><path class="cls-3" d="M178.34,78.41c.6.03,1.19.07,1.79.1.31.02.62.04.94.05,2.92.16,5.83.32,8.75.48"/><path class="cls-3" d="M135.01,105.73c4.26-7.35,4.94-18.73,4.59-27.21-.17-4.04-6.21-11.62,10.51-9.63,2.91.34,4.94-.53,6.29,2.81,1.51,3.69-5.05,18.21,3.79,33.95"/><path class="cls-3" d="M141.73,78.38c.59.03,1.17.09,1.76.1.47.02.94.06,1.41.08,2.77.12,5.53.36,8.3.49"/><path class="cls-3" d="M96.2,105.72c4.07-7.19,4.54-17.69,4.53-25.95,0-6.03-5.67-12.93,10.57-10.9,10.76,1.34,5.02,4.58,4.67,11.63-.04.8,1.29,15.11,1.5,16.07.95,4.28,2.04,5.45,3.9,9.06"/></svg>